<svg width="24" height="24" viewBox="0 0 24 24" fill="none" xmlns="http://www.w3.org/2000/svg">
<path d="M12.9226 5.14784L12.9226 4.14784L10.9226 4.14784L10.9226 5.14784L12.9226 5.14784ZM10.9226 14.0407L10.9226 15.0407L12.9226 15.0407L12.9226 14.0407L10.9226 14.0407ZM10.9226 5.14784L10.9226 14.0407L12.9226 14.0407L12.9226 5.14784L10.9226 5.14784Z" fill="black"/>
<path d="M15.9226 11.4114L12.6297 14.7043C12.2392 15.0949 11.606 15.0949 11.2155 14.7043L7.92261 11.4114" stroke="black" stroke-width="2" stroke-linecap="square"/>
<path d="M3.94659 15.9073V14.9073H5.94659V15.9073H3.94659ZM17.9732 15.9073V14.9073H19.9732V15.9073L17.9732 15.9073ZM5.94659 15.9073V17.9268H3.94659V15.9073H5.94659ZM5.94659 17.9268H17.9732V19.9268H5.94659V17.9268ZM17.9732 17.9268V15.9073L19.9732 15.9073V17.9268H17.9732ZM17.9732 17.9268H19.9732C19.9732 19.0314 19.0778 19.9268 17.9732 19.9268V17.9268ZM5.94659 17.9268L5.94659 17.9268V19.9268C4.84203 19.9268 3.94659 19.0314 3.94659 17.9268H5.94659Z" fill="black"/>
</svg>
