<?xml version="1.0" encoding="utf-8"?>
<!-- Generator: Adobe Illustrator 26.4.1, SVG Export Plug-In . SVG Version: 6.00 Build 0)  -->
<svg version="1.1" id="Camada_1" xmlns="http://www.w3.org/2000/svg" xmlns:xlink="http://www.w3.org/1999/xlink" x="0px" y="0px"
	 viewBox="0 0 100 100" style="enable-background:new 0 0 100 100;" xml:space="preserve">
<style type="text/css">
	.st0{fill:#99FF00;}
</style>
<g>
	<path class="st0" d="M0,19.9C0,8.9,8.9,0,19.9,0h60.3c11,0,19.9,8.9,19.9,19.9v60.3c0,11-8.9,19.9-19.9,19.9H19.9
		C8.9,100,0,91.1,0,80.1V19.9z"/>
	<path d="M65.2,55c-1.9,0-3.4-1.5-3.4-3.4V28.2h18.3l10-10.1v-1.6H71.9c-3.3,0-6.7,1.7-8.3,3.3L50.2,33.2H21.9V16.5h-1.7l-10,10
		v41.9c0,8.3,6.7,15.1,15,15.1h15l10-10v-1.7h-25c-2,0-3.4-1.3-3.4-3.3l0-23.4h18.3l10-10l0,16.7c0,8.4,6.7,15.1,15,15.1h15l10-10
		V55H65.2L65.2,55z"/>
</g>
</svg>
